<?xml version="1.0" encoding="UTF-8"?>
<!DOCTYPE svg PUBLIC "-//W3C//DTD SVG 1.1//EN" "http://www.w3.org/Graphics/SVG/1.1/DTD/svg11.dtd">
<!-- Creator: CorelDRAW 2019 (64-Bit) -->
<svg xmlns="http://www.w3.org/2000/svg" xml:space="preserve" width="889px" height="266px" version="1.1" shape-rendering="geometricPrecision" text-rendering="geometricPrecision" image-rendering="optimizeQuality" fill-rule="evenodd" clip-rule="evenodd"
viewBox="0 0 889 266.43"
 xmlns:xlink="http://www.w3.org/1999/xlink">
 <g id="Слой_x0020_1">
  <metadata id="CorelCorpID_0Corel-Layer"/>
  <path fill="#434242" d="M212.71 0.76l461.8 0 0 35.53 -213.14 0 0 230.9 -35.52 0 0 -230.9 -213.14 0 0 -35.53zm-177.62 71.05l142.09 0 0 35.53 -142.09 0 0 44.4 142.09 0 0 35.53 -142.09 0 0 44.4 142.09 0 0 35.52 -142.09 0 -35.53 0 0 -35.52 0 -44.4 0 -35.53 0 -44.4 0 -35.53 35.53 0zm461.81 195.38l0 -44.4 0 -35.52 0 -79.93 0 -35.53 0 0 109.61 0 0 0.01c41.39,0.36 74.83,34.01 74.83,75.48 0,29.83 -17.3,55.61 -42.42,67.87l35.59 52.02 -43.04 0 -30.38 -44.4 -68.67 0 0 44.4 -35.52 0zm35.52 -159.85l0 79.93 74.09 0 0 -0.01c21.76,-0.36 39.3,-18.11 39.3,-39.96 0,-21.85 -17.54,-39.6 -39.3,-39.96l0 0 -74.09 0zm153.37 159.85l82.13 -195.38 38.53 0 82.12 195.38 -38.53 0 -62.86 -149.54 -62.85 149.54 -38.54 0zm-339.42 0l-98.14 -143.45 0 143.45 -35.52 0 0 -195.38 35.52 0 7.52 0 99.05 144.79 0 -144.79 35.53 0 0 195.38 -0.92 0 -34.61 0 -8.43 0z"/>
 </g>
</svg>
